# xmcd CD database file
#
# Track frame offsets:
#	150
#	15626
#	29500
#	48033
#	66287
#	82790
#	100539
#	121755
#	139655
#	156084
#	174317
#
# Disc length: 2564 seconds
#
# Revision: 0
# Processed by: cddbd v1.4PL0 Copyright (c) Steve Scherf et al.
# Submitted via: Feurio! 1.66 - http://www.feurio.com
#
DISCID=780a020b
DTITLE=Travis Tritt - Down The Road I go
DYEAR=1900
DGENRE=
TTITLE0=Down The Road I Go
TTITLE1=Livin' On Borrowed Time
TTITLE2=Best Of Intentions
TTITLE3=A Great Day To Be Alone
TTITLE4=Love Of A Woman
TTITLE5=Never Get Away From Me
TTITLE6=Modern Day Bonnie and Clyde
TTITLE7=I Wish I Was Wrong
TTITLE8=If The Fall Don't Kill You
TTITLE9=Just Too Tired to Fight It
TTITLE10=Southbound Train
EXTD=Arrangement: Billy Joe Walker, Jr and Travis Tritt\r\nKommentar: 2000 
EXTD=Sony Music Entertainment - COLUMBIA\r\n
EXTT0=
EXTT1=
EXTT2=
EXTT3=
EXTT4=
EXTT5=
EXTT6=
EXTT7=
EXTT8=
EXTT9=
EXTT10=
PLAYORDER=
